<?xml version="1.0" encoding="utf-8" standalone="no"?>
<!DOCTYPE svg PUBLIC "-//W3C//DTD SVG 1.1//EN"
  "http://www.w3.org/Graphics/SVG/1.1/DTD/svg11.dtd">
<svg xmlns:xlink="http://www.w3.org/1999/xlink" width="446.4125pt" height="155.08625pt" viewBox="0 0 446.4125 155.08625" xmlns="http://www.w3.org/2000/svg" version="1.1">
 <metadata>
  <rdf:RDF xmlns:dc="http://purl.org/dc/elements/1.1/" xmlns:cc="http://creativecommons.org/ns#" xmlns:rdf="http://www.w3.org/1999/02/22-rdf-syntax-ns#">
   <cc:Work>
    <dc:type rdf:resource="http://purl.org/dc/dcmitype/StillImage"/>
    <dc:date>2026-01-27T20:39:48.704982</dc:date>
    <dc:format>image/svg+xml</dc:format>
    <dc:creator>
     <cc:Agent>
      <dc:title>Matplotlib v3.10.8, https://matplotlib.org/</dc:title>
     </cc:Agent>
    </dc:creator>
   </cc:Work>
  </rdf:RDF>
 </metadata>
 <defs>
  <style type="text/css">*{stroke-linejoin: round; stroke-linecap: butt}</style>
 </defs>
 <g id="figure_1">
  <g id="patch_1">
   <path d="M 0 155.08625 
L 446.4125 155.08625 
L 446.4125 0 
L 0 0 
z
" style="fill: #ffffff"/>
  </g>
  <g id="axes_1">
   <g id="patch_2">
    <path d="M 28.942188 131.208125 
L 137.832188 131.208125 
L 137.832188 22.318125 
L 28.942188 22.318125 
z
" style="fill: #ffffff"/>
   </g>
   <g id="PathCollection_1">
    <defs>
     <path id="m0fee2ac669" d="M 0 3 
C 0.795609 3 1.55874 2.683901 2.12132 2.12132 
C 2.683901 1.55874 3 0.795609 3 0 
C 3 -0.795609 2.683901 -1.55874 2.12132 -2.12132 
C 1.55874 -2.683901 0.795609 -3 0 -3 
C -0.795609 -3 -1.55874 -2.683901 -2.12132 -2.12132 
C -2.683901 -1.55874 -3 -0.795609 -3 0 
C -3 0.795609 -2.683901 1.55874 -2.12132 2.12132 
C -1.55874 2.683901 -0.795609 3 0 3 
z
" style="stroke: #1f77b4"/>
    </defs>
    <g clip-path="url(#p92dbec9ae8)">
     <use xlink:href="#m0fee2ac669" x="33.891733" y="126.25858" style="fill: #1f77b4; stroke: #1f77b4"/>
     <use xlink:href="#m0fee2ac669" x="33.891733" y="112.117022" style="fill: #1f77b4; stroke: #1f77b4"/>
     <use xlink:href="#m0fee2ac669" x="33.891733" y="97.975461" style="fill: #1f77b4; stroke: #1f77b4"/>
     <use xlink:href="#m0fee2ac669" x="33.891733" y="83.833902" style="fill: #1f77b4; stroke: #1f77b4"/>
     <use xlink:href="#m0fee2ac669" x="33.891733" y="69.692348" style="fill: #1f77b4; stroke: #1f77b4"/>
     <use xlink:href="#m0fee2ac669" x="33.891733" y="55.550789" style="fill: #1f77b4; stroke: #1f77b4"/>
     <use xlink:href="#m0fee2ac669" x="33.891733" y="41.409228" style="fill: #1f77b4; stroke: #1f77b4"/>
     <use xlink:href="#m0fee2ac669" x="33.891733" y="27.26767" style="fill: #1f77b4; stroke: #1f77b4"/>
     <use xlink:href="#m0fee2ac669" x="48.033291" y="126.25858" style="fill: #1f77b4; stroke: #1f77b4"/>
     <use xlink:href="#m0fee2ac669" x="48.033291" y="112.117022" style="fill: #1f77b4; stroke: #1f77b4"/>
     <use xlink:href="#m0fee2ac669" x="48.033291" y="97.975461" style="fill: #1f77b4; stroke: #1f77b4"/>
     <use xlink:href="#m0fee2ac669" x="48.033291" y="83.833902" style="fill: #1f77b4; stroke: #1f77b4"/>
     <use xlink:href="#m0fee2ac669" x="48.033291" y="69.692348" style="fill: #1f77b4; stroke: #1f77b4"/>
     <use xlink:href="#m0fee2ac669" x="48.033291" y="55.550789" style="fill: #1f77b4; stroke: #1f77b4"/>
     <use xlink:href="#m0fee2ac669" x="48.033291" y="41.409228" style="fill: #1f77b4; stroke: #1f77b4"/>
     <use xlink:href="#m0fee2ac669" x="48.033291" y="27.26767" style="fill: #1f77b4; stroke: #1f77b4"/>
     <use xlink:href="#m0fee2ac669" x="62.174851" y="126.25858" style="fill: #1f77b4; stroke: #1f77b4"/>
     <use xlink:href="#m0fee2ac669" x="62.174851" y="112.117022" style="fill: #1f77b4; stroke: #1f77b4"/>
     <use xlink:href="#m0fee2ac669" x="62.174851" y="97.975461" style="fill: #1f77b4; stroke: #1f77b4"/>
     <use xlink:href="#m0fee2ac669" x="62.174851" y="83.833902" style="fill: #1f77b4; stroke: #1f77b4"/>
     <use xlink:href="#m0fee2ac669" x="62.174851" y="69.692348" style="fill: #1f77b4; stroke: #1f77b4"/>
     <use xlink:href="#m0fee2ac669" x="62.174851" y="55.550789" style="fill: #1f77b4; stroke: #1f77b4"/>
     <use xlink:href="#m0fee2ac669" x="62.174851" y="41.409228" style="fill: #1f77b4; stroke: #1f77b4"/>
     <use xlink:href="#m0fee2ac669" x="62.174851" y="27.26767" style="fill: #1f77b4; stroke: #1f77b4"/>
     <use xlink:href="#m0fee2ac669" x="76.31641" y="126.25858" style="fill: #1f77b4; stroke: #1f77b4"/>
     <use xlink:href="#m0fee2ac669" x="76.31641" y="112.117022" style="fill: #1f77b4; stroke: #1f77b4"/>
     <use xlink:href="#m0fee2ac669" x="76.31641" y="97.975461" style="fill: #1f77b4; stroke: #1f77b4"/>
     <use xlink:href="#m0fee2ac669" x="76.31641" y="83.833902" style="fill: #1f77b4; stroke: #1f77b4"/>
     <use xlink:href="#m0fee2ac669" x="76.31641" y="69.692348" style="fill: #1f77b4; stroke: #1f77b4"/>
     <use xlink:href="#m0fee2ac669" x="76.31641" y="55.550789" style="fill: #1f77b4; stroke: #1f77b4"/>
     <use xlink:href="#m0fee2ac669" x="76.31641" y="41.409228" style="fill: #1f77b4; stroke: #1f77b4"/>
     <use xlink:href="#m0fee2ac669" x="76.31641" y="27.26767" style="fill: #1f77b4; stroke: #1f77b4"/>
     <use xlink:href="#m0fee2ac669" x="90.457965" y="126.25858" style="fill: #1f77b4; stroke: #1f77b4"/>
     <use xlink:href="#m0fee2ac669" x="90.457965" y="112.117022" style="fill: #1f77b4; stroke: #1f77b4"/>
     <use xlink:href="#m0fee2ac669" x="90.457965" y="97.975461" style="fill: #1f77b4; stroke: #1f77b4"/>
     <use xlink:href="#m0fee2ac669" x="90.457965" y="83.833902" style="fill: #1f77b4; stroke: #1f77b4"/>
     <use xlink:href="#m0fee2ac669" x="90.457965" y="69.692348" style="fill: #1f77b4; stroke: #1f77b4"/>
     <use xlink:href="#m0fee2ac669" x="90.457965" y="55.550789" style="fill: #1f77b4; stroke: #1f77b4"/>
     <use xlink:href="#m0fee2ac669" x="90.457965" y="41.409228" style="fill: #1f77b4; stroke: #1f77b4"/>
     <use xlink:href="#m0fee2ac669" x="90.457965" y="27.26767" style="fill: #1f77b4; stroke: #1f77b4"/>
     <use xlink:href="#m0fee2ac669" x="104.599524" y="126.25858" style="fill: #1f77b4; stroke: #1f77b4"/>
     <use xlink:href="#m0fee2ac669" x="104.599524" y="112.117022" style="fill: #1f77b4; stroke: #1f77b4"/>
     <use xlink:href="#m0fee2ac669" x="104.599524" y="97.975461" style="fill: #1f77b4; stroke: #1f77b4"/>
     <use xlink:href="#m0fee2ac669" x="104.599524" y="83.833902" style="fill: #1f77b4; stroke: #1f77b4"/>
     <use xlink:href="#m0fee2ac669" x="104.599524" y="69.692348" style="fill: #1f77b4; stroke: #1f77b4"/>
     <use xlink:href="#m0fee2ac669" x="104.599524" y="55.550789" style="fill: #1f77b4; stroke: #1f77b4"/>
     <use xlink:href="#m0fee2ac669" x="104.599524" y="41.409228" style="fill: #1f77b4; stroke: #1f77b4"/>
     <use xlink:href="#m0fee2ac669" x="104.599524" y="27.26767" style="fill: #1f77b4; stroke: #1f77b4"/>
     <use xlink:href="#m0fee2ac669" x="118.741084" y="126.25858" style="fill: #1f77b4; stroke: #1f77b4"/>
     <use xlink:href="#m0fee2ac669" x="118.741084" y="112.117022" style="fill: #1f77b4; stroke: #1f77b4"/>
     <use xlink:href="#m0fee2ac669" x="118.741084" y="97.975461" style="fill: #1f77b4; stroke: #1f77b4"/>
     <use xlink:href="#m0fee2ac669" x="118.741084" y="83.833902" style="fill: #1f77b4; stroke: #1f77b4"/>
     <use xlink:href="#m0fee2ac669" x="118.741084" y="69.692348" style="fill: #1f77b4; stroke: #1f77b4"/>
     <use xlink:href="#m0fee2ac669" x="118.741084" y="55.550789" style="fill: #1f77b4; stroke: #1f77b4"/>
     <use xlink:href="#m0fee2ac669" x="118.741084" y="41.409228" style="fill: #1f77b4; stroke: #1f77b4"/>
     <use xlink:href="#m0fee2ac669" x="118.741084" y="27.26767" style="fill: #1f77b4; stroke: #1f77b4"/>
     <use xlink:href="#m0fee2ac669" x="132.882642" y="126.25858" style="fill: #1f77b4; stroke: #1f77b4"/>
     <use xlink:href="#m0fee2ac669" x="132.882642" y="112.117022" style="fill: #1f77b4; stroke: #1f77b4"/>
     <use xlink:href="#m0fee2ac669" x="132.882642" y="97.975461" style="fill: #1f77b4; stroke: #1f77b4"/>
     <use xlink:href="#m0fee2ac669" x="132.882642" y="83.833902" style="fill: #1f77b4; stroke: #1f77b4"/>
     <use xlink:href="#m0fee2ac669" x="132.882642" y="69.692348" style="fill: #1f77b4; stroke: #1f77b4"/>
     <use xlink:href="#m0fee2ac669" x="132.882642" y="55.550789" style="fill: #1f77b4; stroke: #1f77b4"/>
     <use xlink:href="#m0fee2ac669" x="132.882642" y="41.409228" style="fill: #1f77b4; stroke: #1f77b4"/>
     <use xlink:href="#m0fee2ac669" x="132.882642" y="27.26767" style="fill: #1f77b4; stroke: #1f77b4"/>
    </g>
   </g>
   <g id="matplotlib.axis_1">
    <g id="xtick_1">
     <g id="line2d_1">
      <defs>
       <path id="m4a30fe8354" d="M 0 0 
L 0 3.5 
" style="stroke: #000000; stroke-width: 0.8"/>
      </defs>
      <g>
       <use xlink:href="#m4a30fe8354" x="33.891733" y="131.208125" style="stroke: #000000; stroke-width: 0.8"/>
      </g>
     </g>
     <g id="text_1">
      <!-- −2 -->
      <g transform="translate(26.520639 145.806562) scale(0.1 -0.1)">
       <defs>
        <path id="DejaVuSans-2212" d="M 678 2272 
L 4684 2272 
L 4684 1741 
L 678 1741 
L 678 2272 
z
" transform="scale(0.015625)"/>
        <path id="DejaVuSans-32" d="M 1228 531 
L 3431 531 
L 3431 0 
L 469 0 
L 469 531 
Q 828 903 1448 1529 
Q 2069 2156 2228 2338 
Q 2531 2678 2651 2914 
Q 2772 3150 2772 3378 
Q 2772 3750 2511 3984 
Q 2250 4219 1831 4219 
Q 1534 4219 1204 4116 
Q 875 4013 500 3803 
L 500 4441 
Q 881 4594 1212 4672 
Q 1544 4750 1819 4750 
Q 2544 4750 2975 4387 
Q 3406 4025 3406 3419 
Q 3406 3131 3298 2873 
Q 3191 2616 2906 2266 
Q 2828 2175 2409 1742 
Q 1991 1309 1228 531 
z
" transform="scale(0.015625)"/>
       </defs>
       <use xlink:href="#DejaVuSans-2212"/>
       <use xlink:href="#DejaVuSans-32" transform="translate(83.789062 0)"/>
      </g>
     </g>
    </g>
    <g id="xtick_2">
     <g id="line2d_2">
      <g>
       <use xlink:href="#m4a30fe8354" x="83.387188" y="131.208125" style="stroke: #000000; stroke-width: 0.8"/>
      </g>
     </g>
     <g id="text_2">
      <!-- 0 -->
      <g transform="translate(80.205938 145.806562) scale(0.1 -0.1)">
       <defs>
        <path id="DejaVuSans-30" d="M 2034 4250 
Q 1547 4250 1301 3770 
Q 1056 3291 1056 2328 
Q 1056 1369 1301 889 
Q 1547 409 2034 409 
Q 2525 409 2770 889 
Q 3016 1369 3016 2328 
Q 3016 3291 2770 3770 
Q 2525 4250 2034 4250 
z
M 2034 4750 
Q 2819 4750 3233 4129 
Q 3647 3509 3647 2328 
Q 3647 1150 3233 529 
Q 2819 -91 2034 -91 
Q 1250 -91 836 529 
Q 422 1150 422 2328 
Q 422 3509 836 4129 
Q 1250 4750 2034 4750 
z
" transform="scale(0.015625)"/>
       </defs>
       <use xlink:href="#DejaVuSans-30"/>
      </g>
     </g>
    </g>
    <g id="xtick_3">
     <g id="line2d_3">
      <g>
       <use xlink:href="#m4a30fe8354" x="132.882642" y="131.208125" style="stroke: #000000; stroke-width: 0.8"/>
      </g>
     </g>
     <g id="text_3">
      <!-- 2 -->
      <g transform="translate(129.701392 145.806562) scale(0.1 -0.1)">
       <use xlink:href="#DejaVuSans-32"/>
      </g>
     </g>
    </g>
   </g>
   <g id="matplotlib.axis_2">
    <g id="ytick_1">
     <g id="line2d_4">
      <defs>
       <path id="mafcb2a2aef" d="M 0 0 
L -3.5 0 
" style="stroke: #000000; stroke-width: 0.8"/>
      </defs>
      <g>
       <use xlink:href="#mafcb2a2aef" x="28.942188" y="126.25858" style="stroke: #000000; stroke-width: 0.8"/>
      </g>
     </g>
     <g id="text_4">
      <!-- −2 -->
      <g transform="translate(7.2 130.057798) scale(0.1 -0.1)">
       <use xlink:href="#DejaVuSans-2212"/>
       <use xlink:href="#DejaVuSans-32" transform="translate(83.789062 0)"/>
      </g>
     </g>
    </g>
    <g id="ytick_2">
     <g id="line2d_5">
      <g>
       <use xlink:href="#mafcb2a2aef" x="28.942188" y="76.763125" style="stroke: #000000; stroke-width: 0.8"/>
      </g>
     </g>
     <g id="text_5">
      <!-- 0 -->
      <g transform="translate(15.579688 80.562344) scale(0.1 -0.1)">
       <use xlink:href="#DejaVuSans-30"/>
      </g>
     </g>
    </g>
    <g id="ytick_3">
     <g id="line2d_6">
      <g>
       <use xlink:href="#mafcb2a2aef" x="28.942188" y="27.26767" style="stroke: #000000; stroke-width: 0.8"/>
      </g>
     </g>
     <g id="text_6">
      <!-- 2 -->
      <g transform="translate(15.579688 31.066889) scale(0.1 -0.1)">
       <use xlink:href="#DejaVuSans-32"/>
      </g>
     </g>
    </g>
   </g>
   <g id="patch_3">
    <path d="M 28.942188 131.208125 
L 28.942188 22.318125 
" style="fill: none; stroke: #000000; stroke-width: 0.8; stroke-linejoin: miter; stroke-linecap: square"/>
   </g>
   <g id="patch_4">
    <path d="M 137.832188 131.208125 
L 137.832188 22.318125 
" style="fill: none; stroke: #000000; stroke-width: 0.8; stroke-linejoin: miter; stroke-linecap: square"/>
   </g>
   <g id="patch_5">
    <path d="M 28.942188 131.208125 
L 137.832188 131.208125 
" style="fill: none; stroke: #000000; stroke-width: 0.8; stroke-linejoin: miter; stroke-linecap: square"/>
   </g>
   <g id="patch_6">
    <path d="M 28.942188 22.318125 
L 137.832188 22.318125 
" style="fill: none; stroke: #000000; stroke-width: 0.8; stroke-linejoin: miter; stroke-linecap: square"/>
   </g>
   <g id="text_7">
    <!-- full grid -->
    <g transform="translate(60.480313 16.318125) scale(0.12 -0.12)">
     <defs>
      <path id="DejaVuSans-66" d="M 2375 4863 
L 2375 4384 
L 1825 4384 
Q 1516 4384 1395 4259 
Q 1275 4134 1275 3809 
L 1275 3500 
L 2222 3500 
L 2222 3053 
L 1275 3053 
L 1275 0 
L 697 0 
L 697 3053 
L 147 3053 
L 147 3500 
L 697 3500 
L 697 3744 
Q 697 4328 969 4595 
Q 1241 4863 1831 4863 
L 2375 4863 
z
" transform="scale(0.015625)"/>
      <path id="DejaVuSans-75" d="M 544 1381 
L 544 3500 
L 1119 3500 
L 1119 1403 
Q 1119 906 1312 657 
Q 1506 409 1894 409 
Q 2359 409 2629 706 
Q 2900 1003 2900 1516 
L 2900 3500 
L 3475 3500 
L 3475 0 
L 2900 0 
L 2900 538 
Q 2691 219 2414 64 
Q 2138 -91 1772 -91 
Q 1169 -91 856 284 
Q 544 659 544 1381 
z
M 1991 3584 
L 1991 3584 
z
" transform="scale(0.015625)"/>
      <path id="DejaVuSans-6c" d="M 603 4863 
L 1178 4863 
L 1178 0 
L 603 0 
L 603 4863 
z
" transform="scale(0.015625)"/>
      <path id="DejaVuSans-20" transform="scale(0.015625)"/>
      <path id="DejaVuSans-67" d="M 2906 1791 
Q 2906 2416 2648 2759 
Q 2391 3103 1925 3103 
Q 1463 3103 1205 2759 
Q 947 2416 947 1791 
Q 947 1169 1205 825 
Q 1463 481 1925 481 
Q 2391 481 2648 825 
Q 2906 1169 2906 1791 
z
M 3481 434 
Q 3481 -459 3084 -895 
Q 2688 -1331 1869 -1331 
Q 1566 -1331 1297 -1286 
Q 1028 -1241 775 -1147 
L 775 -588 
Q 1028 -725 1275 -790 
Q 1522 -856 1778 -856 
Q 2344 -856 2625 -561 
Q 2906 -266 2906 331 
L 2906 616 
Q 2728 306 2450 153 
Q 2172 0 1784 0 
Q 1141 0 747 490 
Q 353 981 353 1791 
Q 353 2603 747 3093 
Q 1141 3584 1784 3584 
Q 2172 3584 2450 3431 
Q 2728 3278 2906 2969 
L 2906 3500 
L 3481 3500 
L 3481 434 
z
" transform="scale(0.015625)"/>
      <path id="DejaVuSans-72" d="M 2631 2963 
Q 2534 3019 2420 3045 
Q 2306 3072 2169 3072 
Q 1681 3072 1420 2755 
Q 1159 2438 1159 1844 
L 1159 0 
L 581 0 
L 581 3500 
L 1159 3500 
L 1159 2956 
Q 1341 3275 1631 3429 
Q 1922 3584 2338 3584 
Q 2397 3584 2469 3576 
Q 2541 3569 2628 3553 
L 2631 2963 
z
" transform="scale(0.015625)"/>
      <path id="DejaVuSans-69" d="M 603 3500 
L 1178 3500 
L 1178 0 
L 603 0 
L 603 3500 
z
M 603 4863 
L 1178 4863 
L 1178 4134 
L 603 4134 
L 603 4863 
z
" transform="scale(0.015625)"/>
      <path id="DejaVuSans-64" d="M 2906 2969 
L 2906 4863 
L 3481 4863 
L 3481 0 
L 2906 0 
L 2906 525 
Q 2725 213 2448 61 
Q 2172 -91 1784 -91 
Q 1150 -91 751 415 
Q 353 922 353 1747 
Q 353 2572 751 3078 
Q 1150 3584 1784 3584 
Q 2172 3584 2448 3432 
Q 2725 3281 2906 2969 
z
M 947 1747 
Q 947 1113 1208 752 
Q 1469 391 1925 391 
Q 2381 391 2643 752 
Q 2906 1113 2906 1747 
Q 2906 2381 2643 2742 
Q 2381 3103 1925 3103 
Q 1469 3103 1208 2742 
Q 947 2381 947 1747 
z
" transform="scale(0.015625)"/>
     </defs>
     <use xlink:href="#DejaVuSans-66"/>
     <use xlink:href="#DejaVuSans-75" transform="translate(35.205078 0)"/>
     <use xlink:href="#DejaVuSans-6c" transform="translate(98.583984 0)"/>
     <use xlink:href="#DejaVuSans-6c" transform="translate(126.367188 0)"/>
     <use xlink:href="#DejaVuSans-20" transform="translate(154.150391 0)"/>
     <use xlink:href="#DejaVuSans-67" transform="translate(185.9375 0)"/>
     <use xlink:href="#DejaVuSans-72" transform="translate(249.414062 0)"/>
     <use xlink:href="#DejaVuSans-69" transform="translate(290.527344 0)"/>
     <use xlink:href="#DejaVuSans-64" transform="translate(318.310547 0)"/>
    </g>
   </g>
  </g>
  <g id="axes_2">
   <g id="patch_7">
    <path d="M 176.782188 130.415841 
L 285.672188 130.415841 
L 285.672188 23.110409 
L 176.782188 23.110409 
z
" style="fill: #ffffff"/>
   </g>
   <g id="PathCollection_2">
    <g clip-path="url(#p8eedf8f078)">
     <use xlink:href="#m0fee2ac669" x="246.179772" y="35.595706" style="fill: #1f77b4; stroke: #1f77b4"/>
     <use xlink:href="#m0fee2ac669" x="207.086723" y="121.927747" style="fill: #1f77b4; stroke: #1f77b4"/>
     <use xlink:href="#m0fee2ac669" x="275.596643" y="123.103968" style="fill: #1f77b4; stroke: #1f77b4"/>
     <use xlink:href="#m0fee2ac669" x="187.103021" y="33.575448" style="fill: #1f77b4; stroke: #1f77b4"/>
     <use xlink:href="#m0fee2ac669" x="243.554163" y="86.604344" style="fill: #1f77b4; stroke: #1f77b4"/>
     <use xlink:href="#m0fee2ac669" x="217.388283" y="99.289612" style="fill: #1f77b4; stroke: #1f77b4"/>
     <use xlink:href="#m0fee2ac669" x="226.307156" y="39.334295" style="fill: #1f77b4; stroke: #1f77b4"/>
     <use xlink:href="#m0fee2ac669" x="185.442574" y="61.56969" style="fill: #1f77b4; stroke: #1f77b4"/>
     <use xlink:href="#m0fee2ac669" x="183.751225" y="120.721966" style="fill: #1f77b4; stroke: #1f77b4"/>
     <use xlink:href="#m0fee2ac669" x="198.752494" y="36.98359" style="fill: #1f77b4; stroke: #1f77b4"/>
     <use xlink:href="#m0fee2ac669" x="261.799694" y="77.275488" style="fill: #1f77b4; stroke: #1f77b4"/>
     <use xlink:href="#m0fee2ac669" x="210.230562" y="49.960603" style="fill: #1f77b4; stroke: #1f77b4"/>
     <use xlink:href="#m0fee2ac669" x="201.536553" y="28.318591" style="fill: #1f77b4; stroke: #1f77b4"/>
     <use xlink:href="#m0fee2ac669" x="276.777772" y="29.514597" style="fill: #1f77b4; stroke: #1f77b4"/>
     <use xlink:href="#m0fee2ac669" x="187.818212" y="80.815296" style="fill: #1f77b4; stroke: #1f77b4"/>
     <use xlink:href="#m0fee2ac669" x="250.554458" y="116.384198" style="fill: #1f77b4; stroke: #1f77b4"/>
     <use xlink:href="#m0fee2ac669" x="254.639758" y="37.239451" style="fill: #1f77b4; stroke: #1f77b4"/>
     <use xlink:href="#m0fee2ac669" x="276.288091" y="114.897634" style="fill: #1f77b4; stroke: #1f77b4"/>
     <use xlink:href="#m0fee2ac669" x="181.731733" y="89.181421" style="fill: #1f77b4; stroke: #1f77b4"/>
     <use xlink:href="#m0fee2ac669" x="194.628934" y="116.037618" style="fill: #1f77b4; stroke: #1f77b4"/>
     <use xlink:href="#m0fee2ac669" x="202.262974" y="94.660053" style="fill: #1f77b4; stroke: #1f77b4"/>
     <use xlink:href="#m0fee2ac669" x="246.879697" y="114.106678" style="fill: #1f77b4; stroke: #1f77b4"/>
     <use xlink:href="#m0fee2ac669" x="231.126432" y="99.988514" style="fill: #1f77b4; stroke: #1f77b4"/>
     <use xlink:href="#m0fee2ac669" x="187.025772" y="83.204494" style="fill: #1f77b4; stroke: #1f77b4"/>
     <use xlink:href="#m0fee2ac669" x="226.728375" y="44.842877" style="fill: #1f77b4; stroke: #1f77b4"/>
     <use xlink:href="#m0fee2ac669" x="192.976514" y="56.413627" style="fill: #1f77b4; stroke: #1f77b4"/>
     <use xlink:href="#m0fee2ac669" x="266.749494" y="78.991909" style="fill: #1f77b4; stroke: #1f77b4"/>
     <use xlink:href="#m0fee2ac669" x="234.018864" y="30.433028" style="fill: #1f77b4; stroke: #1f77b4"/>
     <use xlink:href="#m0fee2ac669" x="217.43181" y="89.473931" style="fill: #1f77b4; stroke: #1f77b4"/>
     <use xlink:href="#m0fee2ac669" x="203.931294" y="56.889449" style="fill: #1f77b4; stroke: #1f77b4"/>
     <use xlink:href="#m0fee2ac669" x="271.736799" y="75.734345" style="fill: #1f77b4; stroke: #1f77b4"/>
     <use xlink:href="#m0fee2ac669" x="188.861527" y="62.358066" style="fill: #1f77b4; stroke: #1f77b4"/>
     <use xlink:href="#m0fee2ac669" x="221.338325" y="89.550007" style="fill: #1f77b4; stroke: #1f77b4"/>
     <use xlink:href="#m0fee2ac669" x="270.772954" y="59.284831" style="fill: #1f77b4; stroke: #1f77b4"/>
     <use xlink:href="#m0fee2ac669" x="195.118555" y="40.828731" style="fill: #1f77b4; stroke: #1f77b4"/>
     <use xlink:href="#m0fee2ac669" x="272.291474" y="38.627191" style="fill: #1f77b4; stroke: #1f77b4"/>
     <use xlink:href="#m0fee2ac669" x="221.503438" y="84.183754" style="fill: #1f77b4; stroke: #1f77b4"/>
     <use xlink:href="#m0fee2ac669" x="230.019098" y="123.042654" style="fill: #1f77b4; stroke: #1f77b4"/>
     <use xlink:href="#m0fee2ac669" x="214.712705" y="95.199792" style="fill: #1f77b4; stroke: #1f77b4"/>
     <use xlink:href="#m0fee2ac669" x="250.38828" y="63.774678" style="fill: #1f77b4; stroke: #1f77b4"/>
     <use xlink:href="#m0fee2ac669" x="254.833079" y="32.075306" style="fill: #1f77b4; stroke: #1f77b4"/>
     <use xlink:href="#m0fee2ac669" x="246.35587" y="63.180462" style="fill: #1f77b4; stroke: #1f77b4"/>
     <use xlink:href="#m0fee2ac669" x="280.333462" y="64.394672" style="fill: #1f77b4; stroke: #1f77b4"/>
     <use xlink:href="#m0fee2ac669" x="232.532976" y="35.770768" style="fill: #1f77b4; stroke: #1f77b4"/>
     <use xlink:href="#m0fee2ac669" x="226.373929" y="121.381495" style="fill: #1f77b4; stroke: #1f77b4"/>
     <use xlink:href="#m0fee2ac669" x="214.870304" y="87.283922" style="fill: #1f77b4; stroke: #1f77b4"/>
     <use xlink:href="#m0fee2ac669" x="212.409886" y="40.07773" style="fill: #1f77b4; stroke: #1f77b4"/>
     <use xlink:href="#m0fee2ac669" x="231.736237" y="97.896856" style="fill: #1f77b4; stroke: #1f77b4"/>
     <use xlink:href="#m0fee2ac669" x="260.420521" y="71.544928" style="fill: #1f77b4; stroke: #1f77b4"/>
     <use xlink:href="#m0fee2ac669" x="238.267721" y="37.025537" style="fill: #1f77b4; stroke: #1f77b4"/>
     <use xlink:href="#m0fee2ac669" x="228.205858" y="43.871106" style="fill: #1f77b4; stroke: #1f77b4"/>
     <use xlink:href="#m0fee2ac669" x="242.087862" y="62.995756" style="fill: #1f77b4; stroke: #1f77b4"/>
     <use xlink:href="#m0fee2ac669" x="193.533375" y="27.987929" style="fill: #1f77b4; stroke: #1f77b4"/>
     <use xlink:href="#m0fee2ac669" x="253.966796" y="74.620432" style="fill: #1f77b4; stroke: #1f77b4"/>
     <use xlink:href="#m0fee2ac669" x="198.577222" y="119.701531" style="fill: #1f77b4; stroke: #1f77b4"/>
     <use xlink:href="#m0fee2ac669" x="270.086169" y="63.98442" style="fill: #1f77b4; stroke: #1f77b4"/>
     <use xlink:href="#m0fee2ac669" x="280.722642" y="110.165251" style="fill: #1f77b4; stroke: #1f77b4"/>
     <use xlink:href="#m0fee2ac669" x="193.751905" y="110.299856" style="fill: #1f77b4; stroke: #1f77b4"/>
     <use xlink:href="#m0fee2ac669" x="204.041307" y="42.516932" style="fill: #1f77b4; stroke: #1f77b4"/>
     <use xlink:href="#m0fee2ac669" x="231.118991" y="119.258731" style="fill: #1f77b4; stroke: #1f77b4"/>
     <use xlink:href="#m0fee2ac669" x="204.937816" y="125.538321" style="fill: #1f77b4; stroke: #1f77b4"/>
     <use xlink:href="#m0fee2ac669" x="193.771002" y="93.500732" style="fill: #1f77b4; stroke: #1f77b4"/>
     <use xlink:href="#m0fee2ac669" x="215.591518" y="39.71759" style="fill: #1f77b4; stroke: #1f77b4"/>
     <use xlink:href="#m0fee2ac669" x="248.622578" y="35.700583" style="fill: #1f77b4; stroke: #1f77b4"/>
    </g>
   </g>
   <g id="matplotlib.axis_3">
    <g id="xtick_4">
     <g id="line2d_7">
      <g>
       <use xlink:href="#m4a30fe8354" x="181.074928" y="130.415841" style="stroke: #000000; stroke-width: 0.8"/>
      </g>
     </g>
     <g id="text_8">
      <!-- −2 -->
      <g transform="translate(173.703834 145.014278) scale(0.1 -0.1)">
       <use xlink:href="#DejaVuSans-2212"/>
       <use xlink:href="#DejaVuSans-32" transform="translate(83.789062 0)"/>
      </g>
     </g>
    </g>
    <g id="xtick_5">
     <g id="line2d_8">
      <g>
       <use xlink:href="#m4a30fe8354" x="231.293024" y="130.415841" style="stroke: #000000; stroke-width: 0.8"/>
      </g>
     </g>
     <g id="text_9">
      <!-- 0 -->
      <g transform="translate(228.111774 145.014278) scale(0.1 -0.1)">
       <use xlink:href="#DejaVuSans-30"/>
      </g>
     </g>
    </g>
    <g id="xtick_6">
     <g id="line2d_9">
      <g>
       <use xlink:href="#m4a30fe8354" x="281.511119" y="130.415841" style="stroke: #000000; stroke-width: 0.8"/>
      </g>
     </g>
     <g id="text_10">
      <!-- 2 -->
      <g transform="translate(278.329869 145.014278) scale(0.1 -0.1)">
       <use xlink:href="#DejaVuSans-32"/>
      </g>
     </g>
    </g>
   </g>
   <g id="matplotlib.axis_4">
    <g id="ytick_4">
     <g id="line2d_10">
      <g>
       <use xlink:href="#mafcb2a2aef" x="176.782188" y="126.607569" style="stroke: #000000; stroke-width: 0.8"/>
      </g>
     </g>
     <g id="text_11">
      <!-- −2 -->
      <g transform="translate(155.04 130.406788) scale(0.1 -0.1)">
       <use xlink:href="#DejaVuSans-2212"/>
       <use xlink:href="#DejaVuSans-32" transform="translate(83.789062 0)"/>
      </g>
     </g>
    </g>
    <g id="ytick_5">
     <g id="line2d_11">
      <g>
       <use xlink:href="#mafcb2a2aef" x="176.782188" y="76.389474" style="stroke: #000000; stroke-width: 0.8"/>
      </g>
     </g>
     <g id="text_12">
      <!-- 0 -->
      <g transform="translate(163.419688 80.188693) scale(0.1 -0.1)">
       <use xlink:href="#DejaVuSans-30"/>
      </g>
     </g>
    </g>
    <g id="ytick_6">
     <g id="line2d_12">
      <g>
       <use xlink:href="#mafcb2a2aef" x="176.782188" y="26.171378" style="stroke: #000000; stroke-width: 0.8"/>
      </g>
     </g>
     <g id="text_13">
      <!-- 2 -->
      <g transform="translate(163.419688 29.970597) scale(0.1 -0.1)">
       <use xlink:href="#DejaVuSans-32"/>
      </g>
     </g>
    </g>
   </g>
   <g id="patch_8">
    <path d="M 176.782188 130.415841 
L 176.782188 23.110409 
" style="fill: none; stroke: #000000; stroke-width: 0.8; stroke-linejoin: miter; stroke-linecap: square"/>
   </g>
   <g id="patch_9">
    <path d="M 285.672188 130.415841 
L 285.672188 23.110409 
" style="fill: none; stroke: #000000; stroke-width: 0.8; stroke-linejoin: miter; stroke-linecap: square"/>
   </g>
   <g id="patch_10">
    <path d="M 176.782188 130.415841 
L 285.672188 130.415841 
" style="fill: none; stroke: #000000; stroke-width: 0.8; stroke-linejoin: miter; stroke-linecap: square"/>
   </g>
   <g id="patch_11">
    <path d="M 176.782188 23.110409 
L 285.672188 23.110409 
" style="fill: none; stroke: #000000; stroke-width: 0.8; stroke-linejoin: miter; stroke-linecap: square"/>
   </g>
   <g id="text_14">
    <!-- random grid -->
    <g transform="translate(194.298125 17.110409) scale(0.12 -0.12)">
     <defs>
      <path id="DejaVuSans-61" d="M 2194 1759 
Q 1497 1759 1228 1600 
Q 959 1441 959 1056 
Q 959 750 1161 570 
Q 1363 391 1709 391 
Q 2188 391 2477 730 
Q 2766 1069 2766 1631 
L 2766 1759 
L 2194 1759 
z
M 3341 1997 
L 3341 0 
L 2766 0 
L 2766 531 
Q 2569 213 2275 61 
Q 1981 -91 1556 -91 
Q 1019 -91 701 211 
Q 384 513 384 1019 
Q 384 1609 779 1909 
Q 1175 2209 1959 2209 
L 2766 2209 
L 2766 2266 
Q 2766 2663 2505 2880 
Q 2244 3097 1772 3097 
Q 1472 3097 1187 3025 
Q 903 2953 641 2809 
L 641 3341 
Q 956 3463 1253 3523 
Q 1550 3584 1831 3584 
Q 2591 3584 2966 3190 
Q 3341 2797 3341 1997 
z
" transform="scale(0.015625)"/>
      <path id="DejaVuSans-6e" d="M 3513 2113 
L 3513 0 
L 2938 0 
L 2938 2094 
Q 2938 2591 2744 2837 
Q 2550 3084 2163 3084 
Q 1697 3084 1428 2787 
Q 1159 2491 1159 1978 
L 1159 0 
L 581 0 
L 581 3500 
L 1159 3500 
L 1159 2956 
Q 1366 3272 1645 3428 
Q 1925 3584 2291 3584 
Q 2894 3584 3203 3211 
Q 3513 2838 3513 2113 
z
" transform="scale(0.015625)"/>
      <path id="DejaVuSans-6f" d="M 1959 3097 
Q 1497 3097 1228 2736 
Q 959 2375 959 1747 
Q 959 1119 1226 758 
Q 1494 397 1959 397 
Q 2419 397 2687 759 
Q 2956 1122 2956 1747 
Q 2956 2369 2687 2733 
Q 2419 3097 1959 3097 
z
M 1959 3584 
Q 2709 3584 3137 3096 
Q 3566 2609 3566 1747 
Q 3566 888 3137 398 
Q 2709 -91 1959 -91 
Q 1206 -91 779 398 
Q 353 888 353 1747 
Q 353 2609 779 3096 
Q 1206 3584 1959 3584 
z
" transform="scale(0.015625)"/>
      <path id="DejaVuSans-6d" d="M 3328 2828 
Q 3544 3216 3844 3400 
Q 4144 3584 4550 3584 
Q 5097 3584 5394 3201 
Q 5691 2819 5691 2113 
L 5691 0 
L 5113 0 
L 5113 2094 
Q 5113 2597 4934 2840 
Q 4756 3084 4391 3084 
Q 3944 3084 3684 2787 
Q 3425 2491 3425 1978 
L 3425 0 
L 2847 0 
L 2847 2094 
Q 2847 2600 2669 2842 
Q 2491 3084 2119 3084 
Q 1678 3084 1418 2786 
Q 1159 2488 1159 1978 
L 1159 0 
L 581 0 
L 581 3500 
L 1159 3500 
L 1159 2956 
Q 1356 3278 1631 3431 
Q 1906 3584 2284 3584 
Q 2666 3584 2933 3390 
Q 3200 3197 3328 2828 
z
" transform="scale(0.015625)"/>
     </defs>
     <use xlink:href="#DejaVuSans-72"/>
     <use xlink:href="#DejaVuSans-61" transform="translate(41.113281 0)"/>
     <use xlink:href="#DejaVuSans-6e" transform="translate(102.392578 0)"/>
     <use xlink:href="#DejaVuSans-64" transform="translate(165.771484 0)"/>
     <use xlink:href="#DejaVuSans-6f" transform="translate(229.248047 0)"/>
     <use xlink:href="#DejaVuSans-6d" transform="translate(290.429688 0)"/>
     <use xlink:href="#DejaVuSans-20" transform="translate(387.841797 0)"/>
     <use xlink:href="#DejaVuSans-67" transform="translate(419.628906 0)"/>
     <use xlink:href="#DejaVuSans-72" transform="translate(483.105469 0)"/>
     <use xlink:href="#DejaVuSans-69" transform="translate(524.21875 0)"/>
     <use xlink:href="#DejaVuSans-64" transform="translate(552.001953 0)"/>
    </g>
   </g>
  </g>
  <g id="axes_3">
   <g id="patch_12">
    <path d="M 324.622188 130.293241 
L 433.512188 130.293241 
L 433.512188 23.233009 
L 324.622188 23.233009 
z
" style="fill: #ffffff"/>
   </g>
   <g id="PathCollection_3">
    <g clip-path="url(#p82ca5addea)">
     <use xlink:href="#m0fee2ac669" x="396.974428" y="114.740992" style="fill: #1f77b4; stroke: #1f77b4"/>
     <use xlink:href="#m0fee2ac669" x="360.434402" y="73.663428" style="fill: #1f77b4; stroke: #1f77b4"/>
     <use xlink:href="#m0fee2ac669" x="329.571733" y="89.910501" style="fill: #1f77b4; stroke: #1f77b4"/>
     <use xlink:href="#m0fee2ac669" x="428.562642" y="48.639313" style="fill: #1f77b4; stroke: #1f77b4"/>
     <use xlink:href="#m0fee2ac669" x="413.418511" y="76.972009" style="fill: #1f77b4; stroke: #1f77b4"/>
     <use xlink:href="#m0fee2ac669" x="343.897842" y="36.476702" style="fill: #1f77b4; stroke: #1f77b4"/>
     <use xlink:href="#m0fee2ac669" x="375.538083" y="101.898553" style="fill: #1f77b4; stroke: #1f77b4"/>
     <use xlink:href="#m0fee2ac669" x="382.613967" y="61.599917" style="fill: #1f77b4; stroke: #1f77b4"/>
     <use xlink:href="#m0fee2ac669" x="388.957945" y="96.971812" style="fill: #1f77b4; stroke: #1f77b4"/>
     <use xlink:href="#m0fee2ac669" x="368.029879" y="44.572339" style="fill: #1f77b4; stroke: #1f77b4"/>
     <use xlink:href="#m0fee2ac669" x="349.663042" y="122.099589" style="fill: #1f77b4; stroke: #1f77b4"/>
     <use xlink:href="#m0fee2ac669" x="408.062858" y="69.50649" style="fill: #1f77b4; stroke: #1f77b4"/>
     <use xlink:href="#m0fee2ac669" x="421.044718" y="109.962852" style="fill: #1f77b4; stroke: #1f77b4"/>
     <use xlink:href="#m0fee2ac669" x="335.912093" y="56.590916" style="fill: #1f77b4; stroke: #1f77b4"/>
     <use xlink:href="#m0fee2ac669" x="355.056455" y="84.931122" style="fill: #1f77b4; stroke: #1f77b4"/>
     <use xlink:href="#m0fee2ac669" x="402.723428" y="31.755863" style="fill: #1f77b4; stroke: #1f77b4"/>
     <use xlink:href="#m0fee2ac669" x="398.451633" y="86.934933" style="fill: #1f77b4; stroke: #1f77b4"/>
     <use xlink:href="#m0fee2ac669" x="358.493073" y="28.099383" style="fill: #1f77b4; stroke: #1f77b4"/>
     <use xlink:href="#m0fee2ac669" x="340.171784" y="111.862987" style="fill: #1f77b4; stroke: #1f77b4"/>
     <use xlink:href="#m0fee2ac669" x="417.595995" y="53.221061" style="fill: #1f77b4; stroke: #1f77b4"/>
     <use xlink:href="#m0fee2ac669" x="405.406966" y="124.682559" style="fill: #1f77b4; stroke: #1f77b4"/>
     <use xlink:href="#m0fee2ac669" x="351.593153" y="65.258654" style="fill: #1f77b4; stroke: #1f77b4"/>
     <use xlink:href="#m0fee2ac669" x="370.698066" y="99.853605" style="fill: #1f77b4; stroke: #1f77b4"/>
     <use xlink:href="#m0fee2ac669" x="387.040129" y="40.233026" style="fill: #1f77b4; stroke: #1f77b4"/>
     <use xlink:href="#m0fee2ac669" x="381.482645" y="107.80516" style="fill: #1f77b4; stroke: #1f77b4"/>
     <use xlink:href="#m0fee2ac669" x="375.870394" y="60.285421" style="fill: #1f77b4; stroke: #1f77b4"/>
     <use xlink:href="#m0fee2ac669" x="345.06585" y="82.774946" style="fill: #1f77b4; stroke: #1f77b4"/>
     <use xlink:href="#m0fee2ac669" x="413.122886" y="35.448832" style="fill: #1f77b4; stroke: #1f77b4"/>
     <use xlink:href="#m0fee2ac669" x="422.76623" y="94.835456" style="fill: #1f77b4; stroke: #1f77b4"/>
     <use xlink:href="#m0fee2ac669" x="334.606105" y="48.294275" style="fill: #1f77b4; stroke: #1f77b4"/>
     <use xlink:href="#m0fee2ac669" x="366.194319" y="119.964769" style="fill: #1f77b4; stroke: #1f77b4"/>
     <use xlink:href="#m0fee2ac669" x="391.90356" y="73.226915" style="fill: #1f77b4; stroke: #1f77b4"/>
     <use xlink:href="#m0fee2ac669" x="394.24352" y="91.508594" style="fill: #1f77b4; stroke: #1f77b4"/>
     <use xlink:href="#m0fee2ac669" x="363.94522" y="51.60283" style="fill: #1f77b4; stroke: #1f77b4"/>
     <use xlink:href="#m0fee2ac669" x="332.304978" y="116.631797" style="fill: #1f77b4; stroke: #1f77b4"/>
     <use xlink:href="#m0fee2ac669" x="425.048063" y="76.529359" style="fill: #1f77b4; stroke: #1f77b4"/>
     <use xlink:href="#m0fee2ac669" x="410.688401" y="104.496534" style="fill: #1f77b4; stroke: #1f77b4"/>
     <use xlink:href="#m0fee2ac669" x="347.409478" y="63.612307" style="fill: #1f77b4; stroke: #1f77b4"/>
     <use xlink:href="#m0fee2ac669" x="378.272148" y="79.472431" style="fill: #1f77b4; stroke: #1f77b4"/>
     <use xlink:href="#m0fee2ac669" x="379.100187" y="38.781828" style="fill: #1f77b4; stroke: #1f77b4"/>
     <use xlink:href="#m0fee2ac669" x="386.227062" y="121.77039" style="fill: #1f77b4; stroke: #1f77b4"/>
     <use xlink:href="#m0fee2ac669" x="371.54072" y="68.201303" style="fill: #1f77b4; stroke: #1f77b4"/>
     <use xlink:href="#m0fee2ac669" x="352.396358" y="96.935326" style="fill: #1f77b4; stroke: #1f77b4"/>
     <use xlink:href="#m0fee2ac669" x="404.548351" y="43.169565" style="fill: #1f77b4; stroke: #1f77b4"/>
     <use xlink:href="#m0fee2ac669" x="418.314537" y="83.992212" style="fill: #1f77b4; stroke: #1f77b4"/>
     <use xlink:href="#m0fee2ac669" x="339.423655" y="31.011576" style="fill: #1f77b4; stroke: #1f77b4"/>
     <use xlink:href="#m0fee2ac669" x="357.790492" y="108.926376" style="fill: #1f77b4; stroke: #1f77b4"/>
     <use xlink:href="#m0fee2ac669" x="399.209624" y="56.139364" style="fill: #1f77b4; stroke: #1f77b4"/>
     <use xlink:href="#m0fee2ac669" x="401.963103" y="113.265689" style="fill: #1f77b4; stroke: #1f77b4"/>
     <use xlink:href="#m0fee2ac669" x="355.7628" y="53.257574" style="fill: #1f77b4; stroke: #1f77b4"/>
     <use xlink:href="#m0fee2ac669" x="336.657887" y="88.240046" style="fill: #1f77b4; stroke: #1f77b4"/>
     <use xlink:href="#m0fee2ac669" x="420.32994" y="28.428608" style="fill: #1f77b4; stroke: #1f77b4"/>
     <use xlink:href="#m0fee2ac669" x="408.917709" y="100.305177" style="fill: #1f77b4; stroke: #1f77b4"/>
     <use xlink:href="#m0fee2ac669" x="348.862171" y="41.26943" style="fill: #1f77b4; stroke: #1f77b4"/>
     <use xlink:href="#m0fee2ac669" x="367.183461" y="125.426867" style="fill: #1f77b4; stroke: #1f77b4"/>
     <use xlink:href="#m0fee2ac669" x="389.773347" y="66.197495" style="fill: #1f77b4; stroke: #1f77b4"/>
     <use xlink:href="#m0fee2ac669" x="384.994186" y="79.908941" style="fill: #1f77b4; stroke: #1f77b4"/>
     <use xlink:href="#m0fee2ac669" x="373.140192" y="33.558054" style="fill: #1f77b4; stroke: #1f77b4"/>
     <use xlink:href="#m0fee2ac669" x="341.551974" y="104.841571" style="fill: #1f77b4; stroke: #1f77b4"/>
     <use xlink:href="#m0fee2ac669" x="415.856855" y="58.687355" style="fill: #1f77b4; stroke: #1f77b4"/>
     <use xlink:href="#m0fee2ac669" x="426.276949" y="117.659664" style="fill: #1f77b4; stroke: #1f77b4"/>
     <use xlink:href="#m0fee2ac669" x="331.875102" y="70.726425" style="fill: #1f77b4; stroke: #1f77b4"/>
     <use xlink:href="#m0fee2ac669" x="362.679645" y="92.823087" style="fill: #1f77b4; stroke: #1f77b4"/>
     <use xlink:href="#m0fee2ac669" x="394.636707" y="45.696223" style="fill: #1f77b4; stroke: #1f77b4"/>
    </g>
   </g>
   <g id="matplotlib.axis_5">
    <g id="xtick_7">
     <g id="line2d_13">
      <g>
       <use xlink:href="#m4a30fe8354" x="328.821014" y="130.293241" style="stroke: #000000; stroke-width: 0.8"/>
      </g>
     </g>
     <g id="text_15">
      <!-- −2 -->
      <g transform="translate(321.44992 144.891679) scale(0.1 -0.1)">
       <use xlink:href="#DejaVuSans-2212"/>
       <use xlink:href="#DejaVuSans-32" transform="translate(83.789062 0)"/>
      </g>
     </g>
    </g>
    <g id="xtick_8">
     <g id="line2d_14">
      <g>
       <use xlink:href="#m4a30fe8354" x="378.779281" y="130.293241" style="stroke: #000000; stroke-width: 0.8"/>
      </g>
     </g>
     <g id="text_16">
      <!-- 0 -->
      <g transform="translate(375.598031 144.891679) scale(0.1 -0.1)">
       <use xlink:href="#DejaVuSans-30"/>
      </g>
     </g>
    </g>
    <g id="xtick_9">
     <g id="line2d_15">
      <g>
       <use xlink:href="#m4a30fe8354" x="428.737549" y="130.293241" style="stroke: #000000; stroke-width: 0.8"/>
      </g>
     </g>
     <g id="text_17">
      <!-- 2 -->
      <g transform="translate(425.556299 144.891679) scale(0.1 -0.1)">
       <use xlink:href="#DejaVuSans-32"/>
      </g>
     </g>
    </g>
   </g>
   <g id="matplotlib.axis_6">
    <g id="ytick_7">
     <g id="line2d_16">
      <g>
       <use xlink:href="#mafcb2a2aef" x="324.622188" y="126.60464" style="stroke: #000000; stroke-width: 0.8"/>
      </g>
     </g>
     <g id="text_18">
      <!-- −2 -->
      <g transform="translate(302.88 130.403858) scale(0.1 -0.1)">
       <use xlink:href="#DejaVuSans-2212"/>
       <use xlink:href="#DejaVuSans-32" transform="translate(83.789062 0)"/>
      </g>
     </g>
    </g>
    <g id="ytick_8">
     <g id="line2d_17">
      <g>
       <use xlink:href="#mafcb2a2aef" x="324.622188" y="76.646372" style="stroke: #000000; stroke-width: 0.8"/>
      </g>
     </g>
     <g id="text_19">
      <!-- 0 -->
      <g transform="translate(311.259688 80.445591) scale(0.1 -0.1)">
       <use xlink:href="#DejaVuSans-30"/>
      </g>
     </g>
    </g>
    <g id="ytick_9">
     <g id="line2d_18">
      <g>
       <use xlink:href="#mafcb2a2aef" x="324.622188" y="26.688105" style="stroke: #000000; stroke-width: 0.8"/>
      </g>
     </g>
     <g id="text_20">
      <!-- 2 -->
      <g transform="translate(311.259688 30.487323) scale(0.1 -0.1)">
       <use xlink:href="#DejaVuSans-32"/>
      </g>
     </g>
    </g>
   </g>
   <g id="patch_13">
    <path d="M 324.622188 130.293241 
L 324.622188 23.233009 
" style="fill: none; stroke: #000000; stroke-width: 0.8; stroke-linejoin: miter; stroke-linecap: square"/>
   </g>
   <g id="patch_14">
    <path d="M 433.512188 130.293241 
L 433.512188 23.233009 
" style="fill: none; stroke: #000000; stroke-width: 0.8; stroke-linejoin: miter; stroke-linecap: square"/>
   </g>
   <g id="patch_15">
    <path d="M 324.622188 130.293241 
L 433.512188 130.293241 
" style="fill: none; stroke: #000000; stroke-width: 0.8; stroke-linejoin: miter; stroke-linecap: square"/>
   </g>
   <g id="patch_16">
    <path d="M 324.622188 23.233009 
L 433.512188 23.233009 
" style="fill: none; stroke: #000000; stroke-width: 0.8; stroke-linejoin: miter; stroke-linecap: square"/>
   </g>
   <g id="text_21">
    <!-- random grid (Sobol) -->
    <g transform="translate(318.921875 17.233009) scale(0.12 -0.12)">
     <defs>
      <path id="DejaVuSans-28" d="M 1984 4856 
Q 1566 4138 1362 3434 
Q 1159 2731 1159 2009 
Q 1159 1288 1364 580 
Q 1569 -128 1984 -844 
L 1484 -844 
Q 1016 -109 783 600 
Q 550 1309 550 2009 
Q 550 2706 781 3412 
Q 1013 4119 1484 4856 
L 1984 4856 
z
" transform="scale(0.015625)"/>
      <path id="DejaVuSans-53" d="M 3425 4513 
L 3425 3897 
Q 3066 4069 2747 4153 
Q 2428 4238 2131 4238 
Q 1616 4238 1336 4038 
Q 1056 3838 1056 3469 
Q 1056 3159 1242 3001 
Q 1428 2844 1947 2747 
L 2328 2669 
Q 3034 2534 3370 2195 
Q 3706 1856 3706 1288 
Q 3706 609 3251 259 
Q 2797 -91 1919 -91 
Q 1588 -91 1214 -16 
Q 841 59 441 206 
L 441 856 
Q 825 641 1194 531 
Q 1563 422 1919 422 
Q 2459 422 2753 634 
Q 3047 847 3047 1241 
Q 3047 1584 2836 1778 
Q 2625 1972 2144 2069 
L 1759 2144 
Q 1053 2284 737 2584 
Q 422 2884 422 3419 
Q 422 4038 858 4394 
Q 1294 4750 2059 4750 
Q 2388 4750 2728 4690 
Q 3069 4631 3425 4513 
z
" transform="scale(0.015625)"/>
      <path id="DejaVuSans-62" d="M 3116 1747 
Q 3116 2381 2855 2742 
Q 2594 3103 2138 3103 
Q 1681 3103 1420 2742 
Q 1159 2381 1159 1747 
Q 1159 1113 1420 752 
Q 1681 391 2138 391 
Q 2594 391 2855 752 
Q 3116 1113 3116 1747 
z
M 1159 2969 
Q 1341 3281 1617 3432 
Q 1894 3584 2278 3584 
Q 2916 3584 3314 3078 
Q 3713 2572 3713 1747 
Q 3713 922 3314 415 
Q 2916 -91 2278 -91 
Q 1894 -91 1617 61 
Q 1341 213 1159 525 
L 1159 0 
L 581 0 
L 581 4863 
L 1159 4863 
L 1159 2969 
z
" transform="scale(0.015625)"/>
      <path id="DejaVuSans-29" d="M 513 4856 
L 1013 4856 
Q 1481 4119 1714 3412 
Q 1947 2706 1947 2009 
Q 1947 1309 1714 600 
Q 1481 -109 1013 -844 
L 513 -844 
Q 928 -128 1133 580 
Q 1338 1288 1338 2009 
Q 1338 2731 1133 3434 
Q 928 4138 513 4856 
z
" transform="scale(0.015625)"/>
     </defs>
     <use xlink:href="#DejaVuSans-72"/>
     <use xlink:href="#DejaVuSans-61" transform="translate(41.113281 0)"/>
     <use xlink:href="#DejaVuSans-6e" transform="translate(102.392578 0)"/>
     <use xlink:href="#DejaVuSans-64" transform="translate(165.771484 0)"/>
     <use xlink:href="#DejaVuSans-6f" transform="translate(229.248047 0)"/>
     <use xlink:href="#DejaVuSans-6d" transform="translate(290.429688 0)"/>
     <use xlink:href="#DejaVuSans-20" transform="translate(387.841797 0)"/>
     <use xlink:href="#DejaVuSans-67" transform="translate(419.628906 0)"/>
     <use xlink:href="#DejaVuSans-72" transform="translate(483.105469 0)"/>
     <use xlink:href="#DejaVuSans-69" transform="translate(524.21875 0)"/>
     <use xlink:href="#DejaVuSans-64" transform="translate(552.001953 0)"/>
     <use xlink:href="#DejaVuSans-20" transform="translate(615.478516 0)"/>
     <use xlink:href="#DejaVuSans-28" transform="translate(647.265625 0)"/>
     <use xlink:href="#DejaVuSans-53" transform="translate(686.279297 0)"/>
     <use xlink:href="#DejaVuSans-6f" transform="translate(749.755859 0)"/>
     <use xlink:href="#DejaVuSans-62" transform="translate(810.9375 0)"/>
     <use xlink:href="#DejaVuSans-6f" transform="translate(874.414062 0)"/>
     <use xlink:href="#DejaVuSans-6c" transform="translate(935.595703 0)"/>
     <use xlink:href="#DejaVuSans-29" transform="translate(963.378906 0)"/>
    </g>
   </g>
  </g>
 </g>
 <defs>
  <clipPath id="p92dbec9ae8">
   <rect x="28.942188" y="22.318125" width="108.89" height="108.89"/>
  </clipPath>
  <clipPath id="p8eedf8f078">
   <rect x="176.782188" y="23.110409" width="108.89" height="107.305432"/>
  </clipPath>
  <clipPath id="p82ca5addea">
   <rect x="324.622188" y="23.233009" width="108.89" height="107.060233"/>
  </clipPath>
 </defs>
</svg>
